<svg enable-background="new 0 0 694.9 180" viewBox="0 0 694.9 180" xmlns="http://www.w3.org/2000/svg"><path d="m68.7 98c-6.9 4.6-15 6.8-24.3 6.8-9 0-16.9-1.9-23.5-5.8-6.7-3.9-11.9-9.6-15.5-16.9s-5.4-15.9-5.4-25.8 1.8-18.5 5.4-25.8 8.7-12.9 15.4-16.8 14.4-5.8 23.4-5.8c9.4 0 17.3 1.9 23.7 5.8s11 9.6 13.9 17.3l-14.4 6.4c-1.9-5.6-4.7-9.7-8.3-12.3s-8.3-3.9-14.1-3.9c-8.8 0-15.9 3.1-21.2 9.3-5.2 6.2-7.8 14.8-7.8 25.8 0 11.1 2.5 19.8 7.6 25.9 5 6.2 12 9.3 21 9.3 6.1 0 11.2-1.5 15.3-4.6 4.1-3 7.1-7.5 8.9-13.4l14.5 4.8c-2.9 8.6-7.8 15.1-14.6 19.7z" fill="#69c"/><path d="m158.1 40.5c6.3 6.6 9.4 15.6 9.4 27.2s-3.1 20.7-9.4 27.2-15 9.8-26.1 9.8-19.8-3.3-26.1-9.8-9.4-15.6-9.4-27.2 3.1-20.7 9.4-27.2 15-9.8 26.1-9.8 19.8 3.2 26.1 9.8zm-41 8.6c-3.5 4.3-5.2 10.5-5.2 18.6s1.7 14.3 5.2 18.6 8.4 6.5 14.9 6.5 11.5-2.2 15-6.6 5.3-10.6 5.3-18.5-1.8-14.2-5.3-18.5c-3.5-4.4-8.5-6.6-15-6.6-6.4 0-11.4 2.2-14.9 6.5z" fill="#69c"/><path d="m244.5 40.5c6.3 6.6 9.4 15.6 9.4 27.2s-3.1 20.7-9.4 27.2-15 9.8-26.1 9.8-19.8-3.3-26.1-9.8-9.4-15.6-9.4-27.2 3.1-20.7 9.4-27.2 15-9.8 26.1-9.8 19.8 3.2 26.1 9.8zm-41 8.6c-3.5 4.3-5.2 10.5-5.2 18.6s1.7 14.3 5.2 18.6 8.4 6.5 14.9 6.5 11.5-2.2 15-6.6 5.3-10.6 5.3-18.5-1.8-14.2-5.3-18.5c-3.5-4.4-8.5-6.6-15-6.6-6.4 0-11.4 2.2-14.9 6.5z" fill="#69c"/><path d="m302.8 69.9-14.1 14.5v19h-15.3v-103.4h15.3v67l34.1-34.9h18l-27.3 27.9 28.9 43.3h-17.7z" fill="#69c"/><path d="m356.7 17.6c-1.8-1.7-2.7-4-2.7-7.1 0-3 .9-5.4 2.7-7s4.3-2.4 7.6-2.4c3.2 0 5.7.8 7.5 2.4s2.6 3.9 2.6 7c0 3-.9 5.4-2.6 7.1-1.8 1.7-4.3 2.5-7.5 2.5-3.3 0-5.8-.8-7.6-2.5zm15.1 85.8h-15.3v-71.3h15.3z" fill="#69c"/><path d="m458.8 73.4h-52.2c.9 6.3 3.1 11 6.7 14.3s8.3 4.9 14 4.9c4.7 0 8.5-.8 11.6-2.5s5.2-4.1 6.3-7.2l12.7 5.3c-5.3 11-15.5 16.5-30.7 16.5-11.2 0-20-3.3-26.3-9.8-6.3-6.6-9.5-15.6-9.5-27.2 0-11.7 3-20.8 9.1-27.3s14.6-9.8 25.7-9.8c10.5 0 18.6 3.2 24.4 9.6s8.7 14.8 8.7 25.4c.1 2.7-.1 5.4-.5 7.8zm-45.8-25.8c-3.4 3.2-5.5 7.9-6.3 14.1h38.5c-.8-6-2.8-10.6-6.1-14-3.3-3.3-7.5-5-12.8-5-5.5.1-10 1.7-13.3 4.9z" fill="#69c"/><path d="m540.3 17.1c5.9 5.2 8.9 12.4 8.9 21.5s-3 16.3-8.9 21.5-14 7.8-24.2 7.8h-21v35.5h-15.3v-94.1h36.2c10.3 0 18.4 2.6 24.3 7.8zm-11.8 33.7c3.2-2.7 4.8-6.8 4.8-12.2 0-10.9-6.6-16.4-19.7-16.4h-18.5v32.7h18.5c6.8 0 11.7-1.4 14.9-4.1z" fill="#69c"/><path d="m611.8 32.1-2.4 14c-2.2-1.2-5.2-1.9-9-1.9-3 0-5.9.8-8.6 2.4s-4.9 4-6.7 7.3c-1.8 3.2-2.6 7.1-2.6 11.7v37.8h-15.3v-71.3h13l1.3 12.8c4-9.5 11.5-14.3 22.5-14.3 3.3.1 5.9.5 7.8 1.5z" fill="#69c"/><path d="m681.8 40.5c6.3 6.6 9.4 15.6 9.4 27.2s-3.1 20.7-9.4 27.2-15 9.8-26.1 9.8-19.8-3.3-26.1-9.8-9.4-15.6-9.4-27.2 3.1-20.7 9.4-27.2 15-9.8 26.1-9.8 19.8 3.2 26.1 9.8zm-41 8.6c-3.5 4.3-5.2 10.5-5.2 18.6s1.7 14.3 5.2 18.6 8.4 6.5 14.9 6.5 11.5-2.2 15-6.6 5.3-10.6 5.3-18.5-1.8-14.2-5.3-18.5c-3.5-4.4-8.5-6.6-15-6.6s-11.4 2.2-14.9 6.5z" fill="#69c"/><g fill="#212529"><path d="m396.3 143.3c2.3 2.6 3.4 6.1 3.4 10.7 0 4.5-1.1 8.1-3.4 10.7s-5.4 3.9-9.3 3.9c-2.2 0-4.1-.5-5.8-1.5s-3-2.3-3.8-3.9l-.3 4.9h-3.9v-40.8h4.5v17.2c.9-1.5 2.2-2.7 3.8-3.6s3.5-1.3 5.5-1.3c3.9-.2 7 1.1 9.3 3.7zm-3.4 18.4c1.6-1.9 2.3-4.5 2.3-7.8 0-3.2-.8-5.8-2.3-7.7-1.6-1.9-3.7-2.9-6.4-2.9s-4.8.9-6.4 2.8-2.4 4.4-2.4 7.5v.7c0 3.1.8 5.6 2.4 7.5s3.7 2.8 6.4 2.8 4.8-1 6.4-2.9z"/><path d="m418.2 172.6c-1.1 2.7-2.3 4.6-3.6 5.7s-3.1 1.7-5.2 1.7c-1.4 0-2.6-.2-3.6-.6s-1.8-1-2.6-1.8l1.6-3.8c1.1 1.5 2.6 2.2 4.5 2.2 1.1 0 2-.3 2.9-1 .8-.7 1.6-1.8 2.2-3.6l1.5-3.6-11.7-27.8h5.1l7 18.2 1.7 5 2-5.5 6.5-17.7h4.8z"/><path d="m480.1 132.7c2.6 1.5 4.7 3.7 6.1 6.6s2.1 6.2 2.1 10.1-.7 7.3-2.1 10.1c-1.4 2.9-3.4 5.1-6.1 6.6-2.6 1.5-5.7 2.3-9.3 2.3s-6.6-.8-9.2-2.3-4.6-3.7-6-6.6-2.1-6.2-2.1-10.1.7-7.3 2.1-10.1c1.4-2.9 3.4-5.1 6-6.6s5.7-2.3 9.2-2.3 6.7.8 9.3 2.3zm-17.4 6.6c-2 2.4-3 5.8-3 10.2s1 7.8 3 10.2 4.7 3.6 8.2 3.6 6.2-1.2 8.2-3.6 3-5.8 3-10.2-1-7.8-3-10.2-4.7-3.6-8.2-3.6c-3.5-.1-6.2 1.2-8.2 3.6z"/><path d="m518.8 142.1c2 1.8 2.9 4.4 2.9 7.7v18.1h-6v-16.2c0-4.9-2-7.4-6-7.4-2.1 0-3.9.7-5.4 2.2-1.5 1.4-2.2 3.6-2.2 6.6v14.8h-6v-28h5.3l.3 4.6c.9-1.8 2.2-3.1 3.9-3.9s3.5-1.3 5.6-1.3c3.1.1 5.6 1 7.6 2.8z"/><path d="m555.6 156.2h-20.5c.3 2.5 1.2 4.3 2.6 5.6s3.2 1.9 5.5 1.9c1.8 0 3.3-.3 4.6-1 1.2-.7 2-1.6 2.5-2.8l5 2.1c-2.1 4.3-6.1 6.5-12 6.5-4.4 0-7.8-1.3-10.3-3.9s-3.7-6.1-3.7-10.7 1.2-8.2 3.6-10.7c2.4-2.6 5.7-3.8 10.1-3.8 4.1 0 7.3 1.2 9.6 3.7s3.4 5.8 3.4 10c-.2 1.1-.3 2.1-.4 3.1zm-18-10.1c-1.3 1.3-2.2 3.1-2.5 5.5h15.1c-.3-2.4-1.1-4.2-2.4-5.5s-3-2-5-2c-2.2.1-3.9.7-5.2 2z"/><path d="m586.8 136.1h-12.6v31.8h-6v-31.8h-12.6v-5.1h31.3v5.1z"/><path d="m606.9 140-1 5.5c-.9-.5-2-.7-3.5-.7-1.2 0-2.3.3-3.4 1-1.1.6-1.9 1.6-2.6 2.9s-1 2.8-1 4.6v14.8h-6v-28h5.1l.5 5c1.6-3.7 4.5-5.6 8.8-5.6 1.3-.1 2.3.1 3.1.5z"/><path d="m637.9 140v28h-5.3l-.2-4.5c-1.9 3.4-5.2 5.1-10 5.1-3 0-5.5-.8-7.3-2.5s-2.8-4.2-2.8-7.6v-18.5h6v16.8c0 2.5.5 4.2 1.5 5.2s2.4 1.5 4.3 1.5c2.3 0 4.1-.7 5.6-2.2 1.5-1.4 2.2-3.6 2.2-6.4v-14.9z"/><path d="m649.8 167c-2.2-1-3.8-2.4-5-4.4l4-3.5c.7 1.6 1.8 2.8 3.3 3.5s3.3 1.1 5.4 1.1c1.9 0 3.4-.3 4.4-.9s1.6-1.4 1.6-2.4c0-.9-.5-1.6-1.5-2.2-1-.5-2.6-1.1-5-1.5-4.1-.8-7-1.8-8.7-3.1s-2.5-3.2-2.5-5.5c0-1.5.5-3 1.4-4.3s2.3-2.4 4.1-3.2 3.9-1.2 6.3-1.2c3.1 0 5.6.5 7.4 1.5 1.9 1 3.3 2.6 4.3 4.8l-4.3 3.1c-.7-1.6-1.6-2.8-2.8-3.6s-2.8-1.1-4.6-1.1c-1.7 0-3.1.3-4.2 1s-1.7 1.5-1.7 2.4c0 1 .5 1.8 1.5 2.4s2.8 1.1 5.4 1.6c4 .7 6.8 1.7 8.4 3s2.5 3.1 2.5 5.5c0 2.5-1.1 4.5-3.2 6.1-2.2 1.6-5.1 2.4-9 2.4-2.8 0-5.4-.5-7.5-1.5z"/><path d="m694.9 166.1c-.9.7-2 1.3-3.3 1.8-1.3.4-2.7.6-4.2.6-2.6 0-4.6-.6-6.2-1.9s-2.3-3.3-2.4-6v-15.9h-5.3v-4.7h5.3v-6.5l6-1.7v8.2h9.8v4.7h-9.8v14.9c0 1.3.4 2.3 1.1 3s1.7 1 3 1c1.7 0 3.2-.6 4.5-1.8z"/></g></svg>